<?xml version="1.0" encoding="UTF-8"?>
<svg width="24" height="24" viewBox="0 0 24 24" fill="none" xmlns="http://www.w3.org/2000/svg">
  <path fill-rule="evenodd" clip-rule="evenodd" d="M12 2C6.477 2 2 6.477 2 12C2 16.42 4.865 20.125 8.839 21.489C9.339 21.579 9.521 21.267 9.521 20.997C9.521 20.757 9.513 20.096 9.508 19.203C6.726 19.801 6.139 17.893 6.139 17.893C5.685 16.708 5.029 16.397 5.029 16.397C4.121 15.782 5.098 15.795 5.098 15.795C6.101 15.866 6.629 16.825 6.629 16.825C7.521 18.345 8.97 17.896 9.539 17.636C9.631 16.981 9.889 16.533 10.175 16.278C7.955 16.021 5.619 15.169 5.619 11.293C5.619 10.175 6.01 9.261 6.649 8.547C6.546 8.289 6.203 7.293 6.747 5.931C6.747 5.931 7.587 5.657 9.497 6.977C10.31 6.751 11.157 6.638 12.001 6.634C12.845 6.638 13.693 6.751 14.507 6.977C16.415 5.657 17.253 5.931 17.253 5.931C17.799 7.293 17.456 8.289 17.353 8.547C17.993 9.261 18.381 10.175 18.381 11.293C18.381 15.179 16.041 16.018 13.813 16.271C14.171 16.583 14.491 17.199 14.491 18.139C14.491 19.485 14.479 20.571 14.479 20.997C14.479 21.269 14.659 21.583 15.167 21.488C19.137 20.122 22 16.419 22 12C22 6.477 17.523 2 12 2Z" fill="#64b5f6"/>
</svg>
